HIERARCHY
ROOT SpineBase
{
  OFFSET 0.000000 0.000000 0.000000
  CHANNELS 6 Xposition Yposition Zposition Zrotation Xrotation Yrotation
  JOINT SpineMid
  {
    OFFSET 0.000000 30.908586 0.000000
    CHANNELS 3 Zrotation Xrotation Yrotation
    JOINT SpineShoulder
    {
      OFFSET 0.103263 22.978572 -0.765057
      CHANNELS 3 Zrotation Xrotation Yrotation
      JOINT Neck
      {
        OFFSET 0.050767 7.600642 -0.577307
        CHANNELS 3 Zrotation Xrotation Yrotation
        JOINT Head
        {
          OFFSET 3.742383 12.210325 3.656196
          CHANNELS 3 Zrotation Xrotation Yrotation
          End Site
          {
            OFFSET 0 0 0
          }
        }
      }
      JOINT ShoulderLeft
      {
        OFFSET -4.248173 -4.469309 -12.267104
        CHANNELS 3 Zrotation Xrotation Yrotation
        JOINT ElbowLeft
        {
          OFFSET 1.368095 -25.404602 -5.992121
          CHANNELS 3 Zrotation Xrotation Yrotation
          JOINT WristLeft
          {
            OFFSET 3.616831 -24.547845 -2.313702
            CHANNELS 3 Zrotation Xrotation Yrotation
            JOINT HandLeft
            {
              OFFSET -0.020892 -9.212411 -0.855027
              CHANNELS 3 Zrotation Xrotation Yrotation
              JOINT HandTipLeft
              {
                OFFSET 3.414295 -6.160737 -3.088508
                CHANNELS 3 Zrotation Xrotation Yrotation
                End Site
                {
                  OFFSET 0 0 0
                }
              }
              JOINT ThumbLeft
              {
                OFFSET 2.349354 1.733776 7.468678
                CHANNELS 3 Zrotation Xrotation Yrotation
                End Site
                {
                  OFFSET 0 0 0
                }
              }
            }
          }
        }
      }
      JOINT ShoulderRight
      {
        OFFSET 6.895051 -5.006995 14.873545
        CHANNELS 3 Zrotation Xrotation Yrotation
        JOINT ElbowRight
        {
          OFFSET -0.502919 -25.951457 -5.784317
          CHANNELS 3 Zrotation Xrotation Yrotation
          JOINT WristRight
          {
            OFFSET 10.073213 -21.905556 -2.414670
            CHANNELS 3 Zrotation Xrotation Yrotation
            JOINT HandRight
            {
              OFFSET 3.332993 -7.384201 -0.415140
              CHANNELS 3 Zrotation Xrotation Yrotation
              JOINT HandTipRight
              {
                OFFSET 0.463521 0.507092 -0.231764
                CHANNELS 3 Zrotation Xrotation Yrotation
                End Site
                {
                  OFFSET 0 0 0
                }
              }
              JOINT ThumbRight
              {
                OFFSET 0.991330 0.211295 -0.906046
                CHANNELS 3 Zrotation Xrotation Yrotation
                End Site
                {
                  OFFSET 0 0 0
                }
              }
            }
          }
        }
      }
    }
  }
  JOINT HipLeft
  {
    OFFSET -1.988325 0.824122 -7.801537
    CHANNELS 3 Zrotation Xrotation Yrotation
    JOINT KneeLeft
    {
      OFFSET -4.138033 -39.134989 -5.173225
      CHANNELS 3 Zrotation Xrotation Yrotation
      JOINT AnkleLeft
      {
        OFFSET -10.258925 -37.610752 3.531578
        CHANNELS 3 Zrotation Xrotation Yrotation
        JOINT FootLeft
        {
          OFFSET 1.674003 -6.993245 0.814244
          CHANNELS 3 Zrotation Xrotation Yrotation
          End Site
          {
            OFFSET 0 0 0
          }
        }
      }
    }
  }
  JOINT HipRight
  {
    OFFSET 2.481493 1.257154 0.739721
    CHANNELS 3 Zrotation Xrotation Yrotation
    JOINT KneeRight
    {
      OFFSET -4.362872 -24.172228 -23.202869
      CHANNELS 3 Zrotation Xrotation Yrotation
      JOINT AnkleRight
      {
        OFFSET -7.206668 -40.201442 20.302947
        CHANNELS 3 Zrotation Xrotation Yrotation
        JOINT FootRight
        {
          OFFSET 9.704230 -3.917033 -7.324512
          CHANNELS 3 Zrotation Xrotation Yrotation
          End Site
          {
            OFFSET 0 0 0
          }
        }
      }
    }
  }
}
MOTION
Frames: 10
Frame Time: 0.033333
-26.374234 82.914865 310.819097 -0.000000 0.000000 -62.376004 -0.000000 0.000000 62.376004 -0.000000 0.000000 0.000000 -0.000000 0.000000 0.000000 0.000000 0.000000 0.000000 -0.000000 0.000000 0.000000 -0.000000 0.000000 0.000000 -0.000000 0.000000 0.000000 -0.000000 0.000000 0.000000 0.000000 0.000000 0.000000 0.000000 0.000000 0.000000 -0.000000 0.000000 0.000000 -0.000000 0.000000 0.000000 -0.000000 0.000000 0.000000 -0.000000 0.000000 0.000000 0.000000 0.000000 0.000000 0.000000 0.000000 0.000000 -0.000000 0.000000 62.376004 -0.000000 0.000000 0.000000 -0.000000 0.000000 0.000000 0.000000 0.000000 0.000000 -0.000000 0.000000 62.376004 -0.000000 0.000000 0.000000 -0.000000 0.000000 0.000000 0.000000 0.000000 0.000000
-26.386699 82.917886 310.935164 0.016800 -0.230162 -61.575347 -0.210411 0.094782 61.575555 -0.000000 0.000000 0.000000 -0.000000 0.000000 0.000000 0.000000 0.000000 0.000000 -1.035068 0.396808 0.269010 1.033219 -0.401598 -0.261804 1.401437 -0.783704 -0.118793 -2.504006 -1.615389 -0.654295 0.000000 0.000000 0.000000 0.000000 0.000000 0.000000 -0.000000 0.000000 0.000000 -0.000000 0.000000 0.000000 -0.000000 0.000000 0.000000 -0.000000 0.000000 0.000000 0.000000 0.000000 0.000000 0.000000 0.000000 0.000000 -0.210411 0.094782 61.575555 -0.000000 0.000000 0.000000 21.113971 19.475304 3.443067 0.000000 0.000000 0.000000 -2.106466 0.896138 61.414823 0.203937 -2.048242 0.180775 -0.000000 0.000000 0.000000 0.000000 0.000000 0.000000
-26.400906 82.920419 311.047934 0.030728 -0.448798 -60.882921 -0.407036 0.191537 60.883721 -0.000000 0.000000 0.000000 0.438338 -0.869882 0.139171 0.000000 0.000000 0.000000 -1.885010 0.730500 0.495701 1.878779 -0.746384 -0.471445 2.605977 -1.488645 -0.204928 -4.599269 -3.384759 -1.497859 0.000000 0.000000 0.000000 0.000000 0.000000 0.000000 -0.000000 0.000000 0.000000 -0.000000 0.000000 0.000000 -0.000000 0.000000 0.000000 -0.000000 0.000000 0.000000 0.000000 0.000000 0.000000 0.000000 0.000000 0.000000 -1.473776 0.244632 60.849044 0.473328 -0.957454 0.042693 36.104290 32.307337 1.413132 0.000000 0.000000 0.000000 -4.012733 1.765195 60.612286 0.401196 -3.913073 0.346734 -0.000000 0.000000 0.000000 0.000000 0.000000 0.000000
-26.416857 82.922462 311.157405 0.041781 -0.655874 -60.308806 -0.590463 0.288569 60.310532 -0.000000 0.000000 0.000000 0.571278 -1.194470 0.201942 0.000000 0.000000 0.000000 -2.558948 1.006811 0.679782 2.547240 -1.036091 -0.634259 3.606285 -2.109137 -0.264099 -6.277051 -5.281929 -2.528822 0.000000 0.000000 0.000000 0.000000 0.000000 0.000000 -0.000000 0.000000 0.000000 -0.000000 0.000000 0.000000 -0.000000 0.000000 0.000000 -0.000000 0.000000 0.000000 0.000000 0.000000 0.000000 0.000000 0.000000 0.000000 -2.108314 0.401044 60.260921 0.655498 -1.373624 0.066604 45.716224 39.067341 -1.681684 0.000000 0.000000 0.000000 -5.726792 2.586008 59.971752 0.590151 -5.593995 0.496558 -0.000000 0.000000 0.000000 0.000000 0.000000 0.000000
-26.434552 82.924015 311.263579 0.049960 -0.851361 -59.861173 -0.761364 0.384247 59.864097 0.264324 -0.833490 0.027552 0.381703 -0.612388 0.226021 0.000000 0.000000 0.000000 -3.327946 2.063791 0.841800 3.046036 -1.272100 -0.754199 4.397581 -2.641170 -0.301605 -7.536794 -7.279318 -3.737454 0.000000 0.000000 0.000000 0.000000 0.000000 0.000000 -0.263951 0.833608 -0.023709 -0.000000 0.000000 0.000000 -0.000000 0.000000 0.000000 -0.000000 0.000000 0.000000 0.000000 0.000000 0.000000 0.000000 0.000000 0.000000 -2.675116 0.571633 59.800867 0.801150 -1.748045 0.091417 51.694462 42.609065 -4.190184 0.000000 0.000000 0.000000 -7.257853 3.340201 59.494152 0.769378 -7.092187 0.629032 -0.000000 0.000000 0.000000 0.000000 0.000000 0.000000
-26.453990 82.925079 311.366454 0.055264 -1.035235 -59.546055 -0.920443 0.477041 59.550386 0.298551 -0.987864 0.031828 0.364450 -0.635889 0.272109 0.000000 0.000000 0.000000 -3.700710 2.391321 0.950571 4.187767 -1.150890 -0.844710 4.176921 -3.395086 -0.267734 -8.384837 -9.349355 -5.106963 0.000000 0.000000 0.000000 0.000000 0.000000 0.000000 -0.298046 0.988017 -0.026685 -0.000000 0.000000 0.000000 -0.000000 0.000000 0.000000 -0.000000 0.000000 0.000000 0.000000 0.000000 0.000000 0.000000 0.000000 0.000000 -3.174941 0.750801 59.474446 1.790070 -2.224929 0.272370 54.529216 44.452131 -6.116699 0.000000 0.000000 0.000000 -8.615342 4.012401 59.178264 0.937655 -8.409967 0.743051 -0.000000 0.000000 0.000000 0.000000 0.000000 0.000000
-26.468569 82.921906 311.462015 0.060330 -1.203928 -59.306623 -1.066102 0.562623 59.312491 0.310591 -1.138066 0.034252 0.328685 -0.553211 0.297499 0.000000 0.000000 0.000000 -3.373613 2.422171 0.857728 4.141908 -0.730290 -0.748457 3.778418 -3.598974 -0.259860 -8.499157 -13.737398 -7.926073 0.000000 0.000000 0.000000 0.000000 0.000000 0.000000 -0.309972 1.138235 -0.028088 -0.000000 0.000000 0.000000 -0.000000 0.000000 0.000000 -0.000000 0.000000 0.000000 0.000000 0.000000 0.000000 0.000000 0.000000 0.000000 -3.599738 0.938775 59.223495 1.856845 -2.619788 0.332915 55.282889 44.791511 -6.578757 0.000000 0.000000 0.000000 -11.201222 5.164746 59.022262 1.341650 -11.036751 0.927936 -0.000000 0.000000 0.000000 0.000000 0.000000 0.000000
-26.491842 82.923284 311.582571 0.051448 -1.395093 -59.240434 -0.414326 0.434974 59.251172 0.101193 -0.447848 0.022054 0.237666 -0.470002 0.335660 0.000000 0.000000 0.000000 -3.356493 2.902307 0.885723 3.993666 -1.105724 -0.740644 4.197522 -4.133415 -0.259575 -8.204619 -14.766360 -9.156947 0.000000 0.000000 0.000000 0.000000 0.000000 0.000000 -0.313947 1.264595 -0.028852 -0.000000 0.000000 0.000000 -0.000000 0.000000 0.000000 -0.000000 0.000000 0.000000 0.000000 0.000000 0.000000 0.000000 0.000000 0.000000 -4.033980 1.188157 59.141780 1.846125 -3.038395 0.396953 52.661466 43.497942 -5.411245 0.000000 0.000000 0.000000 -11.925345 5.556501 58.974058 1.411708 -11.662101 1.001605 -0.000000 0.000000 0.000000 0.000000 0.000000 0.000000
-26.530752 82.924908 311.633798 0.029553 -1.486557 -59.638270 -0.415950 0.445903 59.648704 0.088713 -0.407893 0.020466 0.070529 -0.376654 0.379765 0.000000 0.000000 0.000000 -3.327567 2.822367 0.877545 3.839325 -0.771067 -0.698088 4.342568 -5.354894 -0.238126 -6.675523 -12.154764 -8.611314 0.000000 0.000000 0.000000 0.000000 0.000000 0.000000 -0.292197 1.310299 -0.027628 -0.000000 0.000000 0.000000 -0.000000 0.000000 0.000000 -0.000000 0.000000 0.000000 0.000000 0.000000 0.000000 0.000000 0.000000 0.000000 -4.159258 1.287193 59.533626 1.809786 -3.243564 0.445203 52.773371 43.547274 -5.579651 0.000000 0.000000 0.000000 -10.719246 4.867801 59.425022 1.284349 -10.199949 0.797536 -0.000000 0.000000 0.000000 0.000000 0.000000 0.000000
-26.570640 82.939247 311.694338 0.014237 -1.582326 -59.839116 -0.424524 0.452554 59.849295 0.091540 -0.363454 0.019833 -0.196634 -0.268531 0.444461 0.000000 0.000000 0.000000 -3.394791 3.058537 0.916280 3.604022 -1.083240 -0.712304 4.714756 -6.223092 -0.213107 -5.275283 -9.574463 -8.158782 0.000000 0.000000 0.000000 0.000000 0.000000 0.000000 -0.283182 1.351481 -0.027220 -0.000000 0.000000 0.000000 -0.000000 0.000000 0.000000 -0.000000 0.000000 0.000000 0.000000 0.000000 0.000000 0.000000 0.000000 0.000000 -4.300467 1.434402 59.723475 1.712379 -3.447058 0.486178 52.883241 43.611002 -5.708834 0.000000 0.000000 0.000000 -10.471759 4.462215 59.847899 1.439151 -9.696939 0.540175 -0.000000 0.000000 0.000000 0.000000 0.000000 0.000000
